<svg class="diagram-root" style="background: #f5f6f6" xmlns="http://www.w3.org/2000/svg"><style>.diagram-root { font-family: "Helvetica Neue", sans-serif; font-size: 12px; } .t { overflow: visible; } .t-bg { y: 40; fill: #fff;   } .th { fill: #005aa0;   } .tht { fill: #fff; font-size: 14px;  } .tf { fill: #323c46; overflow: visible; } .tf.pk { fill: #005aa0; font-weight: bold; } .tf.fk { font-weight: bold; } .ty { fill: #adb1b5; font-weight: normal; text-anchor: end; } .r { fill: transparent; stroke: #c3c3c3; stroke-width: 1; } .l { stroke: 1; } .i { fill: #c2c7ce; stroke: #c2c7ce; } .i.ix { fill: #afb3b6; stroke: #000; } .fa { fill: transparent; overflow: visible; } .fa .bg.hover { fill: #f7f7f7; } .c { cy: 12; r: 4; stroke: #d2d2dc; fill: #d2d2dc; } .hr { fill: transparent; stroke: #323c46; stroke-opacity: 0.035; stroke-width: 13; } .dc { stroke: #fa5a3c; fill: #fa5a3c; } .x { stroke: white; stroke-width: 1; } .hl .th { fill: #1b9bff; } .hl .tht {  } .fhl .bg { fill: #e7f4ff; } .fhls .bg {  } .r.hl { stroke: #1b9bff; } .dim { opacity: 0.25; }</style><g class="drawing-wrapper" transform="translate(-64.22692307692303, -20) scale(1,1)"><g class="rs"><path d="M 568.31 409 m -1, 0 a 1,1 0 1,0 2,0 a 1,1 0 1,0 -2,0 M 568.31 409 m -0.5, 0 a 0.5,0.5 0 1,0 1,0 a 0.5,0.5 0 1,0 -1,0  M568.31 409 L568.31 409 556.31 409 M 568.31 415 m -1, 0 a 1,1 0 1,0 2,0 a 1,1 0 1,0 -2,0 M 568.31 415 m -0.5, 0 a 0.5,0.5 0 1,0 1,0 a 0.5,0.5 0 1,0 -1,0  M568.31 415 L568.31 415 561.31 409 568.31 403 M 568.31 403 m -1, 0 a 1,1 0 1,0 2,0 a 1,1 0 1,0 -2,0 M 568.31 403 m -0.5, 0 a 0.5,0.5 0 1,0 1,0 a 0.5,0.5 0 1,0 -1,0  M556.31 409 C 503.60600000000005 409, 504.62 224.62, 554.62 224.62 M 566.62 224.62 m -1, 0 a 1,1 0 1,0 2,0 a 1,1 0 1,0 -2,0 M 566.62 224.62 m -0.5, 0 a 0.5,0.5 0 1,0 1,0 a 0.5,0.5 0 1,0 -1,0  M566.62 224.62 L566.62 224.62 554.62 224.62 M560.62 230.62 L560.62 230.62 560.62 218.62" id="h3750219334" class="r"></path><path d="M 568.31 434 m -1, 0 a 1,1 0 1,0 2,0 a 1,1 0 1,0 -2,0 M 568.31 434 m -0.5, 0 a 0.5,0.5 0 1,0 1,0 a 0.5,0.5 0 1,0 -1,0  M568.31 434 L568.31 434 556.31 434 M 568.31 440 m -1, 0 a 1,1 0 1,0 2,0 a 1,1 0 1,0 -2,0 M 568.31 440 m -0.5, 0 a 0.5,0.5 0 1,0 1,0 a 0.5,0.5 0 1,0 -1,0  M568.31 440 L568.31 440 561.31 434 568.31 428 M 568.31 428 m -1, 0 a 1,1 0 1,0 2,0 a 1,1 0 1,0 -2,0 M 568.31 428 m -0.5, 0 a 0.5,0.5 0 1,0 1,0 a 0.5,0.5 0 1,0 -1,0  M556.31 434 C 503.60600000000005 434, 504.62 224.62, 554.62 224.62 M 566.62 224.62 m -1, 0 a 1,1 0 1,0 2,0 a 1,1 0 1,0 -2,0 M 566.62 224.62 m -0.5, 0 a 0.5,0.5 0 1,0 1,0 a 0.5,0.5 0 1,0 -1,0  M566.62 224.62 L566.62 224.62 554.62 224.62 M560.62 230.62 L560.62 230.62 560.62 218.62" id="h3773101666" class="r"></path><path d="M 309 232 m -1, 0 a 1,1 0 1,0 2,0 a 1,1 0 1,0 -2,0 M 309 232 m -0.5, 0 a 0.5,0.5 0 1,0 1,0 a 0.5,0.5 0 1,0 -1,0  M309 232 L309 232 297 232 M 309 238 m -1, 0 a 1,1 0 1,0 2,0 a 1,1 0 1,0 -2,0 M 309 238 m -0.5, 0 a 0.5,0.5 0 1,0 1,0 a 0.5,0.5 0 1,0 -1,0  M309 238 L309 238 302 232 309 226 M 309 226 m -1, 0 a 1,1 0 1,0 2,0 a 1,1 0 1,0 -2,0 M 309 226 m -0.5, 0 a 0.5,0.5 0 1,0 1,0 a 0.5,0.5 0 1,0 -1,0  M297 232 C 256.8487900790069 232, 254.40263623285284 352.38461538461524, 301.07692307692344 352.38461538461524 M 313.07692307692344 352.38461538461524 m -1, 0 a 1,1 0 1,0 2,0 a 1,1 0 1,0 -2,0 M 313.07692307692344 352.38461538461524 m -0.5, 0 a 0.5,0.5 0 1,0 1,0 a 0.5,0.5 0 1,0 -1,0  M313.07692307692344 352.38461538461524 L313.07692307692344 352.38461538461524 301.07692307692344 352.38461538461524 M307.07692307692344 358.38461538461524 L307.07692307692344 358.38461538461524 307.07692307692344 346.38461538461524" id="h1357912059" class="r"></path><path d="M 198.23 107.38 m -1, 0 a 1,1 0 1,0 2,0 a 1,1 0 1,0 -2,0 M 198.23 107.38 m -0.5, 0 a 0.5,0.5 0 1,0 1,0 a 0.5,0.5 0 1,0 -1,0  M198.23 107.38 L198.23 107.38 210.23 107.38 M 198.23 113.38 m -1, 0 a 1,1 0 1,0 2,0 a 1,1 0 1,0 -2,0 M 198.23 113.38 m -0.5, 0 a 0.5,0.5 0 1,0 1,0 a 0.5,0.5 0 1,0 -1,0  M198.23 113.38 L198.23 113.38 205.23 107.38 198.23 101.38 M 198.23 101.38 m -1, 0 a 1,1 0 1,0 2,0 a 1,1 0 1,0 -2,0 M 198.23 101.38 m -0.5, 0 a 0.5,0.5 0 1,0 1,0 a 0.5,0.5 0 1,0 -1,0  M210.23 107.38 Q 231.93 107.38, 253.62 107.19 T 297 107 M 309 107 m -1, 0 a 1,1 0 1,0 2,0 a 1,1 0 1,0 -2,0 M 309 107 m -0.5, 0 a 0.5,0.5 0 1,0 1,0 a 0.5,0.5 0 1,0 -1,0  M309 107 L309 107 297 107 M303 113 L303 113 303 101" id="h1872362696" class="r"></path><path d="M 92.85 132.38 m -1, 0 a 1,1 0 1,0 2,0 a 1,1 0 1,0 -2,0 M 92.85 132.38 m -0.5, 0 a 0.5,0.5 0 1,0 1,0 a 0.5,0.5 0 1,0 -1,0  M92.85 132.38 L92.85 132.38 80.85 132.38 M 92.85 138.38 m -1, 0 a 1,1 0 1,0 2,0 a 1,1 0 1,0 -2,0 M 92.85 138.38 m -0.5, 0 a 0.5,0.5 0 1,0 1,0 a 0.5,0.5 0 1,0 -1,0  M92.85 138.38 L92.85 138.38 85.85 132.38 92.85 126.38 M 92.85 126.38 m -1, 0 a 1,1 0 1,0 2,0 a 1,1 0 1,0 -2,0 M 92.85 126.38 m -0.5, 0 a 0.5,0.5 0 1,0 1,0 a 0.5,0.5 0 1,0 -1,0  M80.85 132.38 C 33.215547927336736 132.38, 37.18754792733673 243.31, 74.23 243.31 M 86.23 243.31 m -1, 0 a 1,1 0 1,0 2,0 a 1,1 0 1,0 -2,0 M 86.23 243.31 m -0.5, 0 a 0.5,0.5 0 1,0 1,0 a 0.5,0.5 0 1,0 -1,0  M86.23 243.31 L86.23 243.31 74.23 243.31 M80.23 249.31 L80.23 249.31 80.23 237.31" id="h515368828" class="r"></path><path d="M 582.85 107 m -1, 0 a 1,1 0 1,0 2,0 a 1,1 0 1,0 -2,0 M 582.85 107 m -0.5, 0 a 0.5,0.5 0 1,0 1,0 a 0.5,0.5 0 1,0 -1,0  M582.85 107 L582.85 107 570.85 107 M 582.85 113 m -1, 0 a 1,1 0 1,0 2,0 a 1,1 0 1,0 -2,0 M 582.85 113 m -0.5, 0 a 0.5,0.5 0 1,0 1,0 a 0.5,0.5 0 1,0 -1,0  M582.85 113 L582.85 113 575.85 107 582.85 101 M 582.85 101 m -1, 0 a 1,1 0 1,0 2,0 a 1,1 0 1,0 -2,0 M 582.85 101 m -0.5, 0 a 0.5,0.5 0 1,0 1,0 a 0.5,0.5 0 1,0 -1,0  M570.85 107 Q 551.41 107, 531.96 107 T 493.06 107 M 481.06 107 m -1, 0 a 1,1 0 1,0 2,0 a 1,1 0 1,0 -2,0 M 481.06 107 m -0.5, 0 a 0.5,0.5 0 1,0 1,0 a 0.5,0.5 0 1,0 -1,0  M481.06 107 L481.06 107 493.06 107 M487.06 113 L487.06 113 487.06 101" id="h3355356883" class="r"></path><path d="M 680.88 132 m -1, 0 a 1,1 0 1,0 2,0 a 1,1 0 1,0 -2,0 M 680.88 132 m -0.5, 0 a 0.5,0.5 0 1,0 1,0 a 0.5,0.5 0 1,0 -1,0  M680.88 132 L680.88 132 692.88 132 M 680.88 138 m -1, 0 a 1,1 0 1,0 2,0 a 1,1 0 1,0 -2,0 M 680.88 138 m -0.5, 0 a 0.5,0.5 0 1,0 1,0 a 0.5,0.5 0 1,0 -1,0  M680.88 138 L680.88 138 687.88 132 680.88 126 M 680.88 126 m -1, 0 a 1,1 0 1,0 2,0 a 1,1 0 1,0 -2,0 M 680.88 126 m -0.5, 0 a 0.5,0.5 0 1,0 1,0 a 0.5,0.5 0 1,0 -1,0  M692.88 132 C 729.8108983981989 132, 727.548898398199 224.62, 696.65 224.62 M 684.65 224.62 m -1, 0 a 1,1 0 1,0 2,0 a 1,1 0 1,0 -2,0 M 684.65 224.62 m -0.5, 0 a 0.5,0.5 0 1,0 1,0 a 0.5,0.5 0 1,0 -1,0  M684.65 224.62 L684.65 224.62 696.65 224.62 M690.65 230.62 L690.65 230.62 690.65 218.62" id="h3860441800" class="r"></path></g><g class="hrs"></g><g class="ts"><svg width="118.03" height="175" x="566.62" y="167.62" id="h2948373614" class="t"><rect height="40" width="118.03" class="th"></rect><text x="13" y="25" class="tht">users</text><rect height="135" width="118.03" class="t-bg"></rect><text x="13" y="61" class="tf pk">user_id<tspan x="105.03" class="ty">int</tspan></text><path d="M7,14A2,2 0 0,1 5,12A2,2 0 0,1 7,10A2,2 0 0,1 9,12A2,2 0 0,1 7,14M12.65,10C11.83,7.67 9.61,6 7, 6A6, 6 0 0, 0 1, 12A6, 6 0 0, 0 7, 18C9.61, 18 11.83, 16.33 12.65, 14H17V18H21V14H23V10H12.65Z" class="i pk" transform="translate(72.356171875, 48) scale(0.65)"></path><text x="13" y="86" class="tf">email<tspan x="105.03" class="ty">varchar</tspan></text><text x="13" y="111" class="tf">login<tspan x="105.03" class="ty">varchar</tspan></text><text x="13" y="136" class="tf">name<tspan x="105.03" class="ty">varchar</tspan></text><text x="13" y="161" class="tf">birthday<tspan x="105.03" class="ty">date</tspan></text></svg><svg width="141.4" height="125" x="568.31" y="352" id="h1476665440" class="t"><rect height="40" width="141.4" class="th"></rect><text x="13" y="25" class="tht">friendship</text><rect height="85" width="141.4" class="t-bg"></rect><text x="13" y="61" class="tf pk">user_id<tspan x="128.4" class="ty">int</tspan></text><path d="M7,14A2,2 0 0,1 5,12A2,2 0 0,1 7,10A2,2 0 0,1 9,12A2,2 0 0,1 7,14M12.65,10C11.83,7.67 9.61,6 7, 6A6, 6 0 0, 0 1, 12A6, 6 0 0, 0 7, 18C9.61, 18 11.83, 16.33 12.65, 14H17V18H21V14H23V10H12.65Z" class="i pk" transform="translate(95.726171875, 48) scale(0.65)"></path><text x="13" y="86" class="tf pk">friend_id<tspan x="128.4" class="ty">int</tspan></text><path d="M7,14A2,2 0 0,1 5,12A2,2 0 0,1 7,10A2,2 0 0,1 9,12A2,2 0 0,1 7,14M12.65,10C11.83,7.67 9.61,6 7, 6A6, 6 0 0, 0 1, 12A6, 6 0 0, 0 7, 18C9.61, 18 11.83, 16.33 12.65, 14H17V18H21V14H23V10H12.65Z" class="i pk" transform="translate(95.726171875, 73) scale(0.65)"></path><text x="13" y="111" class="tf">confirmed<tspan x="128.4" class="ty">boolean</tspan></text></svg><svg width="172.06" height="200" x="309" y="50" id="h907613820" class="t"><rect height="40" width="172.06" class="th"></rect><text x="13" y="25" class="tht">films</text><rect height="160" width="172.06" class="t-bg"></rect><text x="13" y="61" class="tf pk">film_id<tspan x="159.06" class="ty">int</tspan></text><path d="M7,14A2,2 0 0,1 5,12A2,2 0 0,1 7,10A2,2 0 0,1 9,12A2,2 0 0,1 7,14M12.65,10C11.83,7.67 9.61,6 7, 6A6, 6 0 0, 0 1, 12A6, 6 0 0, 0 7, 18C9.61, 18 11.83, 16.33 12.65, 14H17V18H21V14H23V10H12.65Z" class="i pk" transform="translate(126.386171875, 48) scale(0.65)"></path><text x="13" y="86" class="tf">name<tspan x="159.06" class="ty">varchar</tspan></text><text x="13" y="111" class="tf">description<tspan x="159.06" class="ty">varchar(200)</tspan></text><text x="13" y="136" class="tf">release_date<tspan x="159.06" class="ty">date</tspan></text><text x="13" y="161" class="tf">duration<tspan x="159.06" class="ty">int</tspan></text><text x="13" y="186" class="tf fk">mpa_id<tspan x="159.06" class="ty">int</tspan></text></svg><svg width="105.38" height="100" x="92.85" y="50.38" id="h1016190631" class="t"><rect height="40" width="105.38" class="th"></rect><text x="13" y="25" class="tht">film_genre</text><rect height="60" width="105.38" class="t-bg"></rect><text x="13" y="61" class="tf fk">film_id<tspan x="92.38" class="ty">int</tspan></text><text x="13" y="86" class="tf fk">genre_id<tspan x="92.38" class="ty">int</tspan></text></svg><svg width="125.38" height="100" x="86.23" y="186.31" id="h1304626560" class="t"><rect height="40" width="125.38" class="th"></rect><text x="13" y="25" class="tht">genre</text><rect height="60" width="125.38" class="t-bg"></rect><text x="13" y="61" class="tf pk">genre_id<tspan x="112.38" class="ty">int</tspan></text><path d="M7,14A2,2 0 0,1 5,12A2,2 0 0,1 7,10A2,2 0 0,1 9,12A2,2 0 0,1 7,14M12.65,10C11.83,7.67 9.61,6 7, 6A6, 6 0 0, 0 1, 12A6, 6 0 0, 0 7, 18C9.61, 18 11.83, 16.33 12.65, 14H17V18H21V14H23V10H12.65Z" class="i pk" transform="translate(79.706171875, 48) scale(0.65)"></path><text x="13" y="86" class="tf">name<tspan x="112.38" class="ty">varchar</tspan></text></svg><svg width="98.03" height="100" x="582.85" y="50" id="h1213380004" class="t"><rect height="40" width="98.03" class="th"></rect><text x="13" y="25" class="tht">likes</text><rect height="60" width="98.03" class="t-bg"></rect><text x="13" y="61" class="tf fk">film_id<tspan x="85.03" class="ty">int</tspan></text><text x="13" y="86" class="tf fk">user_id<tspan x="85.03" class="ty">int</tspan></text></svg><svg width="172.06" height="125" x="313.07692307692344" y="295.38461538461524" id="h4080879506" class="t"><rect height="40" width="172.06" class="th"></rect><text x="13" y="25" class="tht">mpa</text><rect height="85" width="172.06" class="t-bg"></rect><text x="13" y="61" class="tf pk">mpa_id<tspan x="159.06" class="ty">int</tspan></text><path d="M7,14A2,2 0 0,1 5,12A2,2 0 0,1 7,10A2,2 0 0,1 9,12A2,2 0 0,1 7,14M12.65,10C11.83,7.67 9.61,6 7, 6A6, 6 0 0, 0 1, 12A6, 6 0 0, 0 7, 18C9.61, 18 11.83, 16.33 12.65, 14H17V18H21V14H23V10H12.65Z" class="i pk" transform="translate(126.386171875, 48) scale(0.65)"></path><text x="13" y="86" class="tf">name<tspan x="159.06" class="ty">varchar</tspan></text><text x="13" y="111" class="tf">description<tspan x="159.06" class="ty">varchar(200)</tspan></text></svg></g></g><text class="qdbd-link" x="10" y="20">www.quickdatabasediagrams.com</text></svg>