<svg class="diagram-root" style="background: #f5f6f6" xmlns="http://www.w3.org/2000/svg" xmlns:xlink="http://www.w3.org/1999/xlink"><style>.diagram-root { font-family: "Helvetica Neue", sans-serif; font-size: 12px; } .t { overflow: visible; } .t-bg { y: 40; fill: #fff;   } .th { fill: #005aa0;   } .tht { fill: #fff; font-size: 14px;  } .tf { fill: #323c46; overflow: visible; } .tf.pk { fill: #005aa0; font-weight: bold; } .tf.fk { font-weight: bold; } .ty { fill: #adb1b5; font-weight: normal; text-anchor: end; } .r { fill: transparent; stroke: #c3c3c3; stroke-width: 1; } .l { stroke: 1; } .i { fill: #c2c7ce; stroke: #c2c7ce; } .i.ix { fill: #afb3b6; stroke: #000; } .fa { fill: transparent; overflow: visible; } .fa .bg.hover { fill: #f7f7f7; } .c { cy: 12; r: 4; stroke: #d2d2dc; fill: #d2d2dc; } .hr { fill: transparent; stroke: #323c46; stroke-opacity: 0.035; stroke-width: 13; } .dc { stroke: #fa5a3c; fill: #fa5a3c; } .x { stroke: white; stroke-width: 1; } .hl .th { fill: #1b9bff; } .hl .tht {  } .fhl .bg { fill: #e7f4ff; } .fhls .bg {  } .r.hl { stroke: #1b9bff; } .dim { opacity: 0.25; }</style><g class="drawing-wrapper" transform="translate(-51.15384615384646, -20) scale(1,1)"><g class="rs"><path d="M 810.71 399 m -1, 0 a 1,1 0 1,0 2,0 a 1,1 0 1,0 -2,0 M 810.71 399 m -0.5, 0 a 0.5,0.5 0 1,0 1,0 a 0.5,0.5 0 1,0 -1,0  M810.71 399 L810.71 399 822.71 399 M 810.71 405 m -1, 0 a 1,1 0 1,0 2,0 a 1,1 0 1,0 -2,0 M 810.71 405 m -0.5, 0 a 0.5,0.5 0 1,0 1,0 a 0.5,0.5 0 1,0 -1,0  M810.71 405 L810.71 405 817.71 399 810.71 393 M 810.71 393 m -1, 0 a 1,1 0 1,0 2,0 a 1,1 0 1,0 -2,0 M 810.71 393 m -0.5, 0 a 0.5,0.5 0 1,0 1,0 a 0.5,0.5 0 1,0 -1,0  M822.71 399 C 967.622 399, 932.03 190, 882.03 190 M 870.03 190 m -1, 0 a 1,1 0 1,0 2,0 a 1,1 0 1,0 -2,0 M 870.03 190 m -0.5, 0 a 0.5,0.5 0 1,0 1,0 a 0.5,0.5 0 1,0 -1,0  M870.03 190 L870.03 190 882.03 190 M876.03 196 L876.03 196 876.03 184" id="h3750219334" class="r"></path><path d="M 810.71 424 m -1, 0 a 1,1 0 1,0 2,0 a 1,1 0 1,0 -2,0 M 810.71 424 m -0.5, 0 a 0.5,0.5 0 1,0 1,0 a 0.5,0.5 0 1,0 -1,0  M810.71 424 L810.71 424 822.71 424 M 810.71 430 m -1, 0 a 1,1 0 1,0 2,0 a 1,1 0 1,0 -2,0 M 810.71 430 m -0.5, 0 a 0.5,0.5 0 1,0 1,0 a 0.5,0.5 0 1,0 -1,0  M810.71 430 L810.71 430 817.71 424 810.71 418 M 810.71 418 m -1, 0 a 1,1 0 1,0 2,0 a 1,1 0 1,0 -2,0 M 810.71 418 m -0.5, 0 a 0.5,0.5 0 1,0 1,0 a 0.5,0.5 0 1,0 -1,0  M822.71 424 C 967.622 424, 932.03 190, 882.03 190 M 870.03 190 m -1, 0 a 1,1 0 1,0 2,0 a 1,1 0 1,0 -2,0 M 870.03 190 m -0.5, 0 a 0.5,0.5 0 1,0 1,0 a 0.5,0.5 0 1,0 -1,0  M870.03 190 L870.03 190 882.03 190 M876.03 196 L876.03 196 876.03 184" id="h3773101666" class="r"></path><path d="M 673 552 m -1, 0 a 1,1 0 1,0 2,0 a 1,1 0 1,0 -2,0 M 673 552 m -0.5, 0 a 0.5,0.5 0 1,0 1,0 a 0.5,0.5 0 1,0 -1,0  M673 552 L673 552 661 552 M 673 558 m -1, 0 a 1,1 0 1,0 2,0 a 1,1 0 1,0 -2,0 M 673 558 m -0.5, 0 a 0.5,0.5 0 1,0 1,0 a 0.5,0.5 0 1,0 -1,0  M673 558 L673 558 666 552 673 546 M 673 546 m -1, 0 a 1,1 0 1,0 2,0 a 1,1 0 1,0 -2,0 M 673 546 m -0.5, 0 a 0.5,0.5 0 1,0 1,0 a 0.5,0.5 0 1,0 -1,0  M661 552 C 626.3942843513452 552, 618.5942843513452 449, 674 449 M 686 449 m -1, 0 a 1,1 0 1,0 2,0 a 1,1 0 1,0 -2,0 M 686 449 m -0.5, 0 a 0.5,0.5 0 1,0 1,0 a 0.5,0.5 0 1,0 -1,0  M686 449 L686 449 674 449 M680 455 L680 455 680 443" id="h2716305500" class="r"></path><path d="M 303 362 m -1, 0 a 1,1 0 1,0 2,0 a 1,1 0 1,0 -2,0 M 303 362 m -0.5, 0 a 0.5,0.5 0 1,0 1,0 a 0.5,0.5 0 1,0 -1,0  M303 362 L303 362 291 362 M 303 368 m -1, 0 a 1,1 0 1,0 2,0 a 1,1 0 1,0 -2,0 M 303 368 m -0.5, 0 a 0.5,0.5 0 1,0 1,0 a 0.5,0.5 0 1,0 -1,0  M303 368 L303 368 296 362 303 356 M 303 356 m -1, 0 a 1,1 0 1,0 2,0 a 1,1 0 1,0 -2,0 M 303 356 m -0.5, 0 a 0.5,0.5 0 1,0 1,0 a 0.5,0.5 0 1,0 -1,0  M291 362 C 247.62053737334017 362, 244.02053737334018 232, 297 232 M 309 232 m -1, 0 a 1,1 0 1,0 2,0 a 1,1 0 1,0 -2,0 M 309 232 m -0.5, 0 a 0.5,0.5 0 1,0 1,0 a 0.5,0.5 0 1,0 -1,0  M309 232 L309 232 297 232 M303 238 L303 238 303 226" id="h1737456162" class="r"></path><path d="M 184.38 122 m -1, 0 a 1,1 0 1,0 2,0 a 1,1 0 1,0 -2,0 M 184.38 122 m -0.5, 0 a 0.5,0.5 0 1,0 1,0 a 0.5,0.5 0 1,0 -1,0  M184.38 122 L184.38 122 196.38 122 M 184.38 128 m -1, 0 a 1,1 0 1,0 2,0 a 1,1 0 1,0 -2,0 M 184.38 128 m -0.5, 0 a 0.5,0.5 0 1,0 1,0 a 0.5,0.5 0 1,0 -1,0  M184.38 128 L184.38 128 191.38 122 184.38 116 M 184.38 116 m -1, 0 a 1,1 0 1,0 2,0 a 1,1 0 1,0 -2,0 M 184.38 116 m -0.5, 0 a 0.5,0.5 0 1,0 1,0 a 0.5,0.5 0 1,0 -1,0  M196.38 122 Q 221.54 122, 246.69 114.5 T 297 107 M 309 107 m -1, 0 a 1,1 0 1,0 2,0 a 1,1 0 1,0 -2,0 M 309 107 m -0.5, 0 a 0.5,0.5 0 1,0 1,0 a 0.5,0.5 0 1,0 -1,0  M309 107 L309 107 297 107 M303 113 L303 113 303 101" id="h1872362696" class="r"></path><path d="M 184.38 147 m -1, 0 a 1,1 0 1,0 2,0 a 1,1 0 1,0 -2,0 M 184.38 147 m -0.5, 0 a 0.5,0.5 0 1,0 1,0 a 0.5,0.5 0 1,0 -1,0  M184.38 147 L184.38 147 196.38 147 M 184.38 153 m -1, 0 a 1,1 0 1,0 2,0 a 1,1 0 1,0 -2,0 M 184.38 153 m -0.5, 0 a 0.5,0.5 0 1,0 1,0 a 0.5,0.5 0 1,0 -1,0  M184.38 153 L184.38 153 191.38 147 184.38 141 M 184.38 141 m -1, 0 a 1,1 0 1,0 2,0 a 1,1 0 1,0 -2,0 M 184.38 141 m -0.5, 0 a 0.5,0.5 0 1,0 1,0 a 0.5,0.5 0 1,0 -1,0  M196.38 147 C 241.83748756511477 147, 238.95748756511477 260.2307692307688, 201.18 260.2307692307688 M 189.18 260.2307692307688 m -1, 0 a 1,1 0 1,0 2,0 a 1,1 0 1,0 -2,0 M 189.18 260.2307692307688 m -0.5, 0 a 0.5,0.5 0 1,0 1,0 a 0.5,0.5 0 1,0 -1,0  M189.18 260.2307692307688 L189.18 260.2307692307688 201.18 260.2307692307688 M195.18 266.2307692307688 L195.18 266.2307692307688 195.18 254.23076923076877" id="h515368828" class="r"></path><path d="M 569 157 m -1, 0 a 1,1 0 1,0 2,0 a 1,1 0 1,0 -2,0 M 569 157 m -0.5, 0 a 0.5,0.5 0 1,0 1,0 a 0.5,0.5 0 1,0 -1,0  M569 157 L569 157 557 157 M 569 163 m -1, 0 a 1,1 0 1,0 2,0 a 1,1 0 1,0 -2,0 M 569 163 m -0.5, 0 a 0.5,0.5 0 1,0 1,0 a 0.5,0.5 0 1,0 -1,0  M569 163 L569 163 562 157 569 151 M 569 151 m -1, 0 a 1,1 0 1,0 2,0 a 1,1 0 1,0 -2,0 M 569 151 m -0.5, 0 a 0.5,0.5 0 1,0 1,0 a 0.5,0.5 0 1,0 -1,0  M557 157 Q 541.02 157, 525.03 132 T 493.06 107 M 481.06 107 m -1, 0 a 1,1 0 1,0 2,0 a 1,1 0 1,0 -2,0 M 481.06 107 m -0.5, 0 a 0.5,0.5 0 1,0 1,0 a 0.5,0.5 0 1,0 -1,0  M481.06 107 L481.06 107 493.06 107 M487.06 113 L487.06 113 487.06 101" id="h3355356883" class="r"></path><path d="M 667.03 182 m -1, 0 a 1,1 0 1,0 2,0 a 1,1 0 1,0 -2,0 M 667.03 182 m -0.5, 0 a 0.5,0.5 0 1,0 1,0 a 0.5,0.5 0 1,0 -1,0  M667.03 182 L667.03 182 679.03 182 M 667.03 188 m -1, 0 a 1,1 0 1,0 2,0 a 1,1 0 1,0 -2,0 M 667.03 188 m -0.5, 0 a 0.5,0.5 0 1,0 1,0 a 0.5,0.5 0 1,0 -1,0  M667.03 188 L667.03 188 674.03 182 667.03 176 M 667.03 176 m -1, 0 a 1,1 0 1,0 2,0 a 1,1 0 1,0 -2,0 M 667.03 176 m -0.5, 0 a 0.5,0.5 0 1,0 1,0 a 0.5,0.5 0 1,0 -1,0  M679.03 182 Q 694.28 182, 709.52 186 T 740 190 M 752 190 m -1, 0 a 1,1 0 1,0 2,0 a 1,1 0 1,0 -2,0 M 752 190 m -0.5, 0 a 0.5,0.5 0 1,0 1,0 a 0.5,0.5 0 1,0 -1,0  M752 190 L752 190 740 190 M746 196 L746 196 746 184" id="h3860441800" class="r"></path></g><g class="hrs"></g><g class="ts"><svg width="118.03" height="175" x="752" y="133" id="h2948373614" class="t"><rect height="40" width="118.03" class="th"></rect><text x="13" y="25" class="tht">users</text><rect height="135" width="118.03" class="t-bg"></rect><text x="13" y="61" class="tf pk">user_id<tspan x="105.03" class="ty">int</tspan></text><path d="M7,14A2,2 0 0,1 5,12A2,2 0 0,1 7,10A2,2 0 0,1 9,12A2,2 0 0,1 7,14M12.65,10C11.83,7.67 9.61,6 7, 6A6, 6 0 0, 0 1, 12A6, 6 0 0, 0 7, 18C9.61, 18 11.83, 16.33 12.65, 14H17V18H21V14H23V10H12.65Z" class="i pk" transform="translate(72.356171875, 48) scale(0.65)"></path><text x="13" y="86" class="tf">email<tspan x="105.03" class="ty">varchar</tspan></text><text x="13" y="111" class="tf">login<tspan x="105.03" class="ty">varchar</tspan></text><text x="13" y="136" class="tf">name<tspan x="105.03" class="ty">varchar</tspan></text><text x="13" y="161" class="tf">birthday<tspan x="105.03" class="ty">date</tspan></text></svg><svg width="124.71" height="125" x="686" y="342" id="h1476665440" class="t"><rect height="40" width="124.71" class="th"></rect><text x="13" y="25" class="tht">friendship</text><rect height="85" width="124.71" class="t-bg"></rect><text x="13" y="61" class="tf pk">user_id<tspan x="111.71" class="ty">int</tspan></text><path d="M7,14A2,2 0 0,1 5,12A2,2 0 0,1 7,10A2,2 0 0,1 9,12A2,2 0 0,1 7,14M12.65,10C11.83,7.67 9.61,6 7, 6A6, 6 0 0, 0 1, 12A6, 6 0 0, 0 7, 18C9.61, 18 11.83, 16.33 12.65, 14H17V18H21V14H23V10H12.65Z" class="i pk" transform="translate(79.036171875, 48) scale(0.65)"></path><text x="13" y="86" class="tf pk">friend_id<tspan x="111.71" class="ty">int</tspan></text><path d="M7,14A2,2 0 0,1 5,12A2,2 0 0,1 7,10A2,2 0 0,1 9,12A2,2 0 0,1 7,14M12.65,10C11.83,7.67 9.61,6 7, 6A6, 6 0 0, 0 1, 12A6, 6 0 0, 0 7, 18C9.61, 18 11.83, 16.33 12.65, 14H17V18H21V14H23V10H12.65Z" class="i pk" transform="translate(79.036171875, 73) scale(0.65)"></path><text x="13" y="111" class="tf fk">status_id<tspan x="111.71" class="ty">int</tspan></text></svg><svg width="172.06" height="125" x="673" y="495" id="h1090621442" class="t"><rect height="40" width="172.06" class="th"></rect><text x="13" y="25" class="tht">friendship_status</text><rect height="85" width="172.06" class="t-bg"></rect><text x="13" y="61" class="tf pk">status_id<tspan x="159.06" class="ty">int</tspan></text><path d="M7,14A2,2 0 0,1 5,12A2,2 0 0,1 7,10A2,2 0 0,1 9,12A2,2 0 0,1 7,14M12.65,10C11.83,7.67 9.61,6 7, 6A6, 6 0 0, 0 1, 12A6, 6 0 0, 0 7, 18C9.61, 18 11.83, 16.33 12.65, 14H17V18H21V14H23V10H12.65Z" class="i pk" transform="translate(126.386171875, 48) scale(0.65)"></path><text x="13" y="86" class="tf">name<tspan x="159.06" class="ty">varchar(9)</tspan></text><text x="13" y="111" class="tf">description<tspan x="159.06" class="ty">varchar(100)</tspan></text></svg><svg width="172.06" height="200" x="309" y="50" id="h907613820" class="t"><rect height="40" width="172.06" class="th"></rect><text x="13" y="25" class="tht">films</text><rect height="160" width="172.06" class="t-bg"></rect><text x="13" y="61" class="tf pk">film_id<tspan x="159.06" class="ty">int</tspan></text><path d="M7,14A2,2 0 0,1 5,12A2,2 0 0,1 7,10A2,2 0 0,1 9,12A2,2 0 0,1 7,14M12.65,10C11.83,7.67 9.61,6 7, 6A6, 6 0 0, 0 1, 12A6, 6 0 0, 0 7, 18C9.61, 18 11.83, 16.33 12.65, 14H17V18H21V14H23V10H12.65Z" class="i pk" transform="translate(126.386171875, 48) scale(0.65)"></path><text x="13" y="86" class="tf">name<tspan x="159.06" class="ty">varchar</tspan></text><text x="13" y="111" class="tf">description<tspan x="159.06" class="ty">varchar(200)</tspan></text><text x="13" y="136" class="tf">release_date<tspan x="159.06" class="ty">date</tspan></text><text x="13" y="161" class="tf">duration<tspan x="159.06" class="ty">int</tspan></text><text x="13" y="186" class="tf fk">rating_id<tspan x="159.06" class="ty">int</tspan></text></svg><svg width="172.06" height="125" x="303" y="305" id="h2037942479" class="t"><rect height="40" width="172.06" class="th"></rect><text x="13" y="25" class="tht">rating</text><rect height="85" width="172.06" class="t-bg"></rect><text x="13" y="61" class="tf pk">rating_id<tspan x="159.06" class="ty">int</tspan></text><path d="M7,14A2,2 0 0,1 5,12A2,2 0 0,1 7,10A2,2 0 0,1 9,12A2,2 0 0,1 7,14M12.65,10C11.83,7.67 9.61,6 7, 6A6, 6 0 0, 0 1, 12A6, 6 0 0, 0 7, 18C9.61, 18 11.83, 16.33 12.65, 14H17V18H21V14H23V10H12.65Z" class="i pk" transform="translate(126.386171875, 48) scale(0.65)"></path><text x="13" y="86" class="tf">name<tspan x="159.06" class="ty">varchar</tspan></text><text x="13" y="111" class="tf">description<tspan x="159.06" class="ty">varchar(200)</tspan></text></svg><svg width="105.38" height="100" x="79" y="65" id="h1016190631" class="t"><rect height="40" width="105.38" class="th"></rect><text x="13" y="25" class="tht">film_genre</text><rect height="60" width="105.38" class="t-bg"></rect><text x="13" y="61" class="tf fk">film_id<tspan x="92.38" class="ty">int</tspan></text><text x="13" y="86" class="tf fk">genre_id<tspan x="92.38" class="ty">int</tspan></text></svg><svg width="98.03" height="100" x="569" y="100" id="h1213380004" class="t"><rect height="40" width="98.03" class="th"></rect><text x="13" y="25" class="tht">likes</text><rect height="60" width="98.03" class="t-bg"></rect><text x="13" y="61" class="tf fk">film_id<tspan x="85.03" class="ty">int</tspan></text><text x="13" y="86" class="tf fk">user_id<tspan x="85.03" class="ty">int</tspan></text></svg><svg width="116.03" height="100" x="73.15384615384646" y="203.23076923076877" id="h1304626560" class="t"><rect height="40" width="116.03" class="th"></rect><text x="13" y="25" class="tht">genre</text><rect height="60" width="116.03" class="t-bg"></rect><text x="13" y="61" class="tf pk">genre_id</text><path d="M7,14A2,2 0 0,1 5,12A2,2 0 0,1 7,10A2,2 0 0,1 9,12A2,2 0 0,1 7,14M12.65,10C11.83,7.67 9.61,6 7, 6A6, 6 0 0, 0 1, 12A6, 6 0 0, 0 7, 18C9.61, 18 11.83, 16.33 12.65, 14H17V18H21V14H23V10H12.65Z" class="i pk" transform="translate(88.03, 48) scale(0.65)"></path><text x="13" y="86" class="tf">name<tspan x="103.03" class="ty">varchar</tspan></text></svg></g></g><text class="qdbd-link" x="10" y="20">www.quickdatabasediagrams.com</text></svg>